<?xml version="1.0" standalone="no"?>
<!DOCTYPE svg PUBLIC "-//W3C//DTD SVG 20010904//EN"
 "http://www.w3.org/TR/2001/REC-SVG-20010904/DTD/svg10.dtd">
<svg version="1.0" xmlns="http://www.w3.org/2000/svg"
 width="1500.000000pt" height="1500.000000pt" viewBox="0 0 1500.000000 1500.000000"
 preserveAspectRatio="xMidYMid meet">

<g transform="translate(0.000000,1500.000000) scale(0.100000,-0.100000)"
fill="#FFF" stroke="none">
<path d="M7441 12789 c-557 -29 -1062 -144 -1426 -326 -141 -71 -199 -110
-495 -338 -743 -572 -1086 -793 -1317 -849 -42 -10 -164 -16 -438 -20 -210 -4
-498 -11 -640 -16 -143 -5 -399 -14 -570 -20 -343 -11 -500 -27 -681 -70 -222
-53 -365 -124 -492 -244 -153 -144 -237 -324 -289 -616 -15 -87 -17 -314 -20
-2824 -3 -2676 -3 -2731 16 -2807 49 -195 162 -382 330 -549 157 -157 318
-256 524 -325 168 -56 247 -65 617 -75 690 -18 1145 -85 1563 -230 329 -113
533 -224 982 -530 288 -197 381 -256 524 -334 419 -229 902 -353 1542 -396
237 -16 829 -8 1004 14 1023 129 1852 535 2501 1226 862 918 1264 2236 1058
3477 -220 1332 -1085 2344 -2383 2788 -478 163 -986 247 -1576 262 -848 20
-1561 -159 -2129 -534 -216 -143 -458 -362 -610 -553 -299 -374 -499 -838
-578 -1341 -20 -126 -22 -182 -22 -444 0 -258 3 -319 21 -435 62 -391 187
-765 357 -1067 147 -263 286 -445 510 -669 348 -347 699 -561 1181 -719 561
-185 1237 -226 1747 -106 533 125 1008 428 1254 798 73 108 106 191 112 278 4
66 2 73 -23 103 -35 42 -87 55 -162 43 -126 -20 -218 -68 -448 -232 -392 -280
-643 -388 -1025 -440 -124 -17 -478 -17 -600 0 -865 122 -1457 756 -1607 1721
-23 145 -25 586 -5 725 90 598 344 1095 720 1409 282 234 598 365 987 407 211
23 660 -1 975 -52 614 -98 1191 -344 1630 -695 120 -96 352 -330 448 -451 660
-836 812 -1976 398 -2978 -95 -227 -273 -527 -431 -723 -231 -286 -548 -551
-885 -740 -506 -283 -1054 -429 -1738 -462 -546 -27 -1047 49 -1495 226 -335
133 -531 241 -1148 637 -733 469 -1142 619 -1754 642 -185 7 -238 17 -319 57
-148 74 -232 235 -257 493 -16 166 -7 4923 10 5030 51 336 148 486 361 557 64
22 80 22 830 29 636 5 777 9 835 22 219 48 302 99 821 498 452 348 716 543
788 584 353 197 997 307 1721 292 383 -8 636 -34 927 -98 255 -56 506 -154
623 -245 706 -546 1254 -840 1830 -979 224 -55 323 -66 650 -75 321 -8 365
-15 468 -66 118 -60 206 -151 266 -277 38 -81 55 -134 83 -254 l22 -98 6
-2870 5 -2870 21 -62 c57 -165 166 -265 322 -293 76 -13 163 0 239 38 64 30
156 125 183 185 53 120 50 -79 50 3112 0 1911 -4 3001 -10 3095 -30 422 -107
633 -295 809 -128 119 -307 198 -552 243 -111 20 -161 22 -818 28 -729 8 -738
8 -912 54 -118 31 -238 78 -373 147 -231 116 -422 251 -930 655 -270 214 -340
264 -482 339 -402 212 -955 341 -1598 375 -216 11 -302 11 -529 -1z"/>
</g>
</svg>
